<svg xmlns="http://www.w3.org/2000/svg" viewBox="0 0 192 192" width="192" height="192">
  <rect width="192" height="192" rx="32" fill="#0a0a0a"/>
  <g transform="translate(96,96)">
    <!-- Dumbbell -->
    <rect x="-60" y="-8" width="120" height="16" rx="4" fill="#e53935"/>
    <rect x="-70" y="-28" width="20" height="56" rx="6" fill="#ff1744"/>
    <rect x="50" y="-28" width="20" height="56" rx="6" fill="#ff1744"/>
    <rect x="-76" y="-20" width="12" height="40" rx="4" fill="#b71c1c"/>
    <rect x="64" y="-20" width="12" height="40" rx="4" fill="#b71c1c"/>
    <!-- Flame accent -->
    <path d="M0,-55 C8,-45 16,-35 12,-20 C18,-28 22,-18 18,-5 C24,-12 28,-2 20,12 C14,22 6,26 0,28 C-6,26 -14,22 -20,12 C-28,-2 -24,-12 -18,-5 C-22,-18 -18,-28 -12,-20 C-16,-35 -8,-45 0,-55Z" fill="#e53935" opacity="0.6"/>
  </g>
</svg>
